# Created by Kenney (www.kenney.nl)

mtllib ET_idle1.mtl

v 4 11 -1.5
v 4 8 -1.5
v 4 11 1.5
v 4 8 1.5
v -2 11 -1.5
v -2 11 1.5
v -2 8 1.5
v -2 8 -1.5
v -2 10 -1.5
v -2 10 1.5
v -5 11 -1.5
v -5 11 1.5
v -5 10 1.5
v -5 10 -1.5
v 4 10 -1.5
v 4 10 1.5
v 3 11 -1.5
v 3 11 1.5
v 3 10 1.5
v 3 10 -1.5
v -4 10 -1.5
v -4 7 -1.5
v -4 10 1.5
v -4 7 1.5
v -5 7 1.5
v -5 7 -1.5
v -2 9 -1.5
v -2 7 -1.5
v -2 9 1.5
v -2 7 1.5
v -4 9 -1.5
v -4 9 1.5
v 1 8 -1.5
v 1 5 -1.5
v 1 8 1.5
v 1 5 1.5
v -1 8 -1.5
v -1 8 1.5
v -1 5 1.5
v -1 5 -1.5
v -1 7 -1.5
v -1 7 1.5
v 4 7 -1.5
v 4 -3 -1.5
v 4 7 1.5
v 4 -3 1.5
v 1 7 -1.5
v 1 7 1.5
v 1 -3 1.5
v 1 -3 -1.5
v -1 6 -1.5
v -1 4 -1.5
v -1 6 1.5
v -1 4 1.5
v -3 6 -1.5
v -3 6 1.5
v -3 4 1.5
v -3 4 -1.5
v 6 5 -1.5
v 6 3 -1.5
v 6 5 1.5
v 6 3 1.5
v 4 5 -1.5
v 4 5 1.5
v 4 3 1.5
v 4 3 -1.5
v -3 5 -1.5
v -3 2 -1.5
v -3 5 1.5
v -3 2 1.5
v -5 5 -1.5
v -5 5 1.5
v -5 2 1.5
v -5 2 -1.5
v 8 4 -1.5
v 8 -1 -1.5
v 8 4 1.5
v 8 -1 1.5
v 6 4 -1.5
v 6 4 1.5
v 6 -1 1.5
v 6 -1 -1.5
v 6 -2 -1.5
v 6 -5 -1.5
v 6 -2 1.5
v 6 -5 1.5
v 4 -2 -1.5
v 4 -2 1.5
v 4 -5 1.5
v 4 -5 -1.5
v 8 -4 -1.5
v 8 -10 -1.5
v 8 -4 1.5
v 8 -10 1.5
v 6 -4 -1.5
v 6 -4 1.5
v 6 -10 1.5
v 6 -10 -1.5
v 4 -4 -1.5
v 4 -6 -1.5
v 4 -4 1.5
v 4 -6 1.5
v 1 -4 -1.5
v 1 -4 1.5
v 1 -6 1.5
v 1 -6 -1.5
v 1 -5 -1.5
v 1 -9 -1.5
v 1 -5 1.5
v 1 -9 1.5
v -1 -5 -1.5
v -1 -5 1.5
v -1 -9 1.5
v -1 -9 -1.5
v -1 -8 -1.5
v -1 -8 1.5
v -5 -8 -1.5
v -5 -8 1.5
v -5 -9 1.5
v -5 -9 -1.5
v 6 -9 -1.5
v 6 -9 1.5
v 1 -10 1.5
v 1 -10 -1.5
v -2 10 -1
v -2 9 -1
v -2 10 1
v -2 9 1
v -4 10 -1
v -4 10 1
v -4 9 1
v -4 9 -1

vn 1 0 0
vn 0 1 0
vn 0 -1 0
vn -1 0 0
vn 0 0 -1
vn 0 0 1

vt -19.68504 19.68504
vt 19.68504 19.68504
vt -19.68504 -19.68504
vt 0 NaN
vt 0 0
vt 0 NaN
vt 0 NaN
vt 0 NaN
vt 0 NaN
vt 0 NaN
vt 19.68504 -19.68504
vt 0 NaN
vt 0 NaN
vt 0 NaN
vt 0 NaN
vt 0 NaN
vt 0 NaN
vt 0 NaN
vt 0 NaN
vt 0 NaN
vt 0 NaN
vt 0 NaN
vt 0 NaN
vt 0 NaN
vt 0 NaN
vt 0 NaN
vt 0 NaN
vt 0 NaN
vt 0 NaN
vt 0 NaN
vt 0 NaN
vt 0 NaN
vt 0 NaN
vt 0 NaN
vt 0 NaN
vt 0 NaN
vt 0 NaN
vt 0 NaN
vt 0 NaN
vt 0 NaN
vt 0 NaN
vt 0 NaN
vt 0 NaN
vt 0 NaN
vt 0 NaN
vt 0 NaN
vt 0 NaN
vt 0 NaN
vt 0 NaN
vt 0 NaN
vt 0 NaN
vt 0 NaN
vt 0 NaN
vt 0 NaN
vt 0 NaN
vt 0 NaN
vt 0 NaN
vt 0 NaN
vt 0 NaN
vt 0 NaN
vt 0 NaN
vt 0 NaN
vt 0 NaN
vt 0 NaN
vt 0 NaN
vt 0 NaN
vt 0 NaN
vt 0 NaN
vt 0 NaN
vt 0 NaN
vt 0 NaN
vt 0 NaN
vt 0 NaN
vt 0 NaN
vt 0 NaN
vt 0 NaN
vt 0 NaN
vt 0 NaN
vt 0 NaN
vt 0 NaN
vt 0 NaN
vt 0 NaN
vt 0 NaN
vt 0 NaN
vt 0 NaN
vt 0 NaN
vt 0 NaN
vt 0 NaN
vt 0 NaN
vt 0 NaN
vt 0 NaN
vt 0 NaN
vt 0 NaN
vt 0 NaN
vt 0 NaN
vt 0 NaN
vt 0 NaN
vt 0 NaN
vt 0 NaN
vt 0 NaN
vt 0 NaN
vt 0 NaN
vt 0 NaN
vt 0 NaN
vt 0 NaN
vt 0 NaN
vt 0 NaN
vt 0 NaN

usemtl color1

f 3/3/1 2/2/1 1/1/1
f 2/3/1 3/2/1 4/1/1
f 5/3/2 3/2/2 1/1/2
f 3/3/2 5/2/2 6/1/2
f 7/5/3 2/5/3 4/4/3
f 2/5/3 7/5/3 8/6/3
f 7/5/4 5/5/4 8/7/4
f 5/5/4 7/5/4 6/8/4
f 5/5/5 2/5/5 8/9/5
f 2/5/5 5/5/5 1/10/5
f 3/2/6 7/3/6 4/11/6
f 7/3/6 3/2/6 6/1/6
f 6/3/1 9/2/1 5/1/1
f 9/3/1 6/2/1 10/1/1
f 11/3/2 6/2/2 5/1/2
f 6/3/2 11/2/2 12/1/2
f 13/5/3 9/5/3 10/12/3
f 9/5/3 13/5/3 14/13/3
f 13/5/4 11/5/4 14/14/4
f 11/5/4 13/5/4 12/15/4
f 11/5/5 9/5/5 14/16/5
f 9/5/5 11/5/5 5/5/5
f 6/2/6 13/3/6 10/11/6
f 13/3/6 6/2/6 12/1/6
f 3/3/1 15/2/1 1/1/1
f 15/3/1 3/2/1 16/1/1
f 17/3/2 3/2/2 1/1/2
f 3/3/2 17/2/2 18/1/2
f 19/5/3 15/5/3 16/17/3
f 15/5/3 19/5/3 20/18/3
f 19/5/4 17/5/4 20/19/4
f 17/5/4 19/5/4 18/20/4
f 17/5/5 15/5/5 20/21/5
f 15/5/5 17/5/5 1/10/5
f 3/2/6 19/3/6 16/11/6
f 19/3/6 3/2/6 18/1/6
f 6/3/1 9/2/1 5/1/1
f 9/3/1 6/2/1 10/1/1
f 11/3/2 6/2/2 5/1/2
f 6/3/2 11/2/2 12/1/2
f 13/5/3 9/5/3 10/12/3
f 9/5/3 13/5/3 14/13/3
f 13/5/4 11/5/4 14/14/4
f 11/5/4 13/5/4 12/15/4
f 11/5/5 9/5/5 14/16/5
f 9/5/5 11/5/5 5/5/5
f 6/2/6 13/3/6 10/11/6
f 13/3/6 6/2/6 12/1/6
f 23/3/1 22/2/1 21/1/1
f 22/3/1 23/2/1 24/1/1
f 14/3/2 23/2/2 21/1/2
f 23/3/2 14/2/2 13/1/2
f 25/5/3 22/5/3 24/22/3
f 22/5/3 25/5/3 26/23/3
f 25/5/4 14/14/4 26/24/4
f 14/14/4 25/5/4 13/5/4
f 14/16/5 22/5/5 26/25/5
f 22/5/5 14/16/5 21/26/5
f 23/2/6 25/3/6 24/11/6
f 25/3/6 23/2/6 13/1/6
f 29/3/1 28/2/1 27/1/1
f 28/3/1 29/2/1 30/1/1
f 31/3/2 29/2/2 27/1/2
f 29/3/2 31/2/2 32/1/2
f 24/22/3 28/5/3 30/27/3
f 28/5/3 24/22/3 22/5/3
f 24/5/4 31/5/4 22/28/4
f 31/5/4 24/5/4 32/29/4
f 31/5/5 28/5/5 22/5/5
f 28/5/5 31/5/5 27/30/5
f 29/2/6 24/3/6 30/11/6
f 24/3/6 29/2/6 32/1/6
f 35/3/1 34/2/1 33/1/1
f 34/3/1 35/2/1 36/1/1
f 37/3/2 35/2/2 33/1/2
f 35/3/2 37/2/2 38/1/2
f 39/5/3 34/5/3 36/31/3
f 34/5/3 39/5/3 40/32/3
f 39/5/4 37/5/4 40/33/4
f 37/5/4 39/5/4 38/34/4
f 37/5/5 34/5/5 40/35/5
f 34/5/5 37/5/5 33/36/5
f 35/2/6 39/3/6 36/11/6
f 39/3/6 35/2/6 38/1/6
f 38/3/1 41/2/1 37/1/1
f 41/3/1 38/2/1 42/1/1
f 8/3/2 38/2/2 37/1/2
f 38/3/2 8/2/2 7/1/2
f 30/27/3 41/5/3 42/37/3
f 41/5/3 30/27/3 28/5/3
f 30/5/4 8/7/4 28/38/4
f 8/7/4 30/5/4 7/5/4
f 8/9/5 41/5/5 28/5/5
f 41/5/5 8/9/5 37/5/5
f 38/2/6 30/3/6 42/11/6
f 30/3/6 38/2/6 7/1/6
f 45/3/1 44/2/1 43/1/1
f 44/3/1 45/2/1 46/1/1
f 47/3/2 45/2/2 43/1/2
f 45/3/2 47/2/2 48/1/2
f 49/5/3 44/5/3 46/39/3
f 44/5/3 49/5/3 50/40/3
f 49/5/4 47/5/4 50/41/4
f 47/5/4 49/5/4 48/42/4
f 47/5/5 44/5/5 50/43/5
f 44/5/5 47/5/5 43/44/5
f 45/2/6 49/3/6 46/11/6
f 49/3/6 45/2/6 48/1/6
f 53/3/1 52/2/1 51/1/1
f 52/3/1 53/2/1 54/1/1
f 55/3/2 53/2/2 51/1/2
f 53/3/2 55/2/2 56/1/2
f 57/5/3 52/5/3 54/45/3
f 52/5/3 57/5/3 58/46/3
f 57/5/4 55/5/4 58/47/4
f 55/5/4 57/5/4 56/48/4
f 55/5/5 52/5/5 58/49/5
f 52/5/5 55/5/5 51/50/5
f 53/2/6 57/3/6 54/11/6
f 57/3/6 53/2/6 56/1/6
f 61/3/1 60/2/1 59/1/1
f 60/3/1 61/2/1 62/1/1
f 63/3/2 61/2/2 59/1/2
f 61/3/2 63/2/2 64/1/2
f 65/5/3 60/5/3 62/51/3
f 60/5/3 65/5/3 66/52/3
f 65/5/4 63/5/4 66/53/4
f 63/5/4 65/5/4 64/54/4
f 63/5/5 60/5/5 66/55/5
f 60/5/5 63/5/5 59/56/5
f 61/2/6 65/3/6 62/11/6
f 65/3/6 61/2/6 64/1/6
f 69/3/1 68/2/1 67/1/1
f 68/3/1 69/2/1 70/1/1
f 71/3/2 69/2/2 67/1/2
f 69/3/2 71/2/2 72/1/2
f 73/5/3 68/5/3 70/57/3
f 68/5/3 73/5/3 74/58/3
f 73/5/4 71/5/4 74/59/4
f 71/5/4 73/5/4 72/60/4
f 71/5/5 68/5/5 74/61/5
f 68/5/5 71/5/5 67/62/5
f 69/2/6 73/3/6 70/11/6
f 73/3/6 69/2/6 72/1/6
f 77/3/1 76/2/1 75/1/1
f 76/3/1 77/2/1 78/1/1
f 79/3/2 77/2/2 75/1/2
f 77/3/2 79/2/2 80/1/2
f 81/5/3 76/5/3 78/63/3
f 76/5/3 81/5/3 82/64/3
f 81/5/4 79/5/4 82/65/4
f 79/5/4 81/5/4 80/66/4
f 79/5/5 76/5/5 82/67/5
f 76/5/5 79/5/5 75/68/5
f 77/2/6 81/3/6 78/11/6
f 81/3/6 77/2/6 80/1/6
f 85/3/1 84/2/1 83/1/1
f 84/3/1 85/2/1 86/1/1
f 87/3/2 85/2/2 83/1/2
f 85/3/2 87/2/2 88/1/2
f 89/5/3 84/5/3 86/69/3
f 84/5/3 89/5/3 90/70/3
f 89/5/4 87/5/4 90/71/4
f 87/5/4 89/5/4 88/72/4
f 87/5/5 84/5/5 90/73/5
f 84/5/5 87/5/5 83/74/5
f 85/2/6 89/3/6 86/11/6
f 89/3/6 85/2/6 88/1/6
f 93/3/1 92/2/1 91/1/1
f 92/3/1 93/2/1 94/1/1
f 95/3/2 93/2/2 91/1/2
f 93/3/2 95/2/2 96/1/2
f 97/5/3 92/5/3 94/75/3
f 92/5/3 97/5/3 98/76/3
f 97/5/4 95/5/4 98/77/4
f 95/5/4 97/5/4 96/78/4
f 95/5/5 92/5/5 98/79/5
f 92/5/5 95/5/5 91/80/5
f 93/2/6 97/3/6 94/11/6
f 97/3/6 93/2/6 96/1/6
f 101/3/1 100/2/1 99/1/1
f 100/3/1 101/2/1 102/1/1
f 103/3/2 101/2/2 99/1/2
f 101/3/2 103/2/2 104/1/2
f 105/5/3 100/5/3 102/81/3
f 100/5/3 105/5/3 106/82/3
f 105/5/4 103/5/4 106/83/4
f 103/5/4 105/5/4 104/84/4
f 103/5/5 100/5/5 106/85/5
f 100/5/5 103/5/5 99/86/5
f 101/2/6 105/3/6 102/11/6
f 105/3/6 101/2/6 104/1/6
f 109/3/1 108/2/1 107/1/1
f 108/3/1 109/2/1 110/1/1
f 111/3/2 109/2/2 107/1/2
f 109/3/2 111/2/2 112/1/2
f 113/5/3 108/5/3 110/87/3
f 108/5/3 113/5/3 114/88/3
f 113/5/4 111/5/4 114/89/4
f 111/5/4 113/5/4 112/90/4
f 111/5/5 108/5/5 114/91/5
f 108/5/5 111/5/5 107/92/5
f 109/2/6 113/3/6 110/11/6
f 113/3/6 109/2/6 112/1/6
f 116/3/1 114/2/1 115/1/1
f 114/3/1 116/2/1 113/1/1
f 117/3/2 116/2/2 115/1/2
f 116/3/2 117/2/2 118/1/2
f 119/5/3 114/88/3 113/5/3
f 114/88/3 119/5/3 120/93/3
f 119/5/4 117/5/4 120/94/4
f 117/5/4 119/5/4 118/95/4
f 117/5/5 114/91/5 120/96/5
f 114/91/5 117/5/5 115/97/5
f 116/2/6 119/3/6 113/11/6
f 119/3/6 116/2/6 118/1/6
f 122/3/1 98/2/1 121/1/1
f 98/3/1 122/2/1 97/1/1
f 108/3/2 122/2/2 121/1/2
f 122/3/2 108/2/2 110/1/2
f 123/5/3 98/76/3 97/5/3
f 98/76/3 123/5/3 124/98/3
f 123/5/4 108/5/4 124/99/4
f 108/5/4 123/5/4 110/100/4
f 108/5/5 98/79/5 124/101/5
f 98/79/5 108/5/5 121/102/5
f 122/2/6 123/3/6 97/11/6
f 123/3/6 122/2/6 110/1/6
f 38/3/1 41/2/1 37/1/1
f 41/3/1 38/2/1 42/1/1
f 8/3/2 38/2/2 37/1/2
f 38/3/2 8/2/2 7/1/2
f 30/27/3 41/5/3 42/37/3
f 41/5/3 30/27/3 28/5/3
f 30/5/4 8/7/4 28/38/4
f 8/7/4 30/5/4 7/5/4
f 8/9/5 41/5/5 28/5/5
f 41/5/5 8/9/5 37/5/5
f 38/2/6 30/3/6 42/11/6
f 30/3/6 38/2/6 7/1/6

usemtl color2

f 127/3/1 126/2/1 125/1/1
f 126/3/1 127/2/1 128/1/1
f 129/3/2 127/2/2 125/1/2
f 127/3/2 129/2/2 130/1/2
f 131/5/3 126/5/3 128/103/3
f 126/5/3 131/5/3 132/104/3
f 131/5/4 129/5/4 132/105/4
f 129/5/4 131/5/4 130/106/4
f 129/5/5 126/5/5 132/107/5
f 126/5/5 129/5/5 125/108/5
f 127/2/6 131/3/6 128/11/6
f 131/3/6 127/2/6 130/1/6

